<mxfile host="app.diagrams.net" modified="2021-01-20T09:48:02.629Z" agent="5.0 (Windows)" etag="y-EogHgo-y7cYuNWpJfD" version="14.2.4" type="github">
  <diagram id="7Loyd5V_W4Dzbx70ytYD" name="Page-1">
    <mxGraphModel dx="1422" dy="791" grid="1" gridSize="10" guides="1" tooltips="1" connect="1" arrows="1" fold="1" page="1" pageScale="1" pageWidth="827" pageHeight="1169" math="0" shadow="0">
      <root>
        <mxCell id="0" />
        <mxCell id="1" parent="0" />
        <mxCell id="M-cQeSInd5cV_T6EZegz-7" style="edgeStyle=orthogonalEdgeStyle;rounded=0;orthogonalLoop=1;jettySize=auto;html=1;exitX=0.5;exitY=1;exitDx=0;exitDy=0;entryX=0.5;entryY=0;entryDx=0;entryDy=0;" edge="1" parent="1" source="M-cQeSInd5cV_T6EZegz-1" target="M-cQeSInd5cV_T6EZegz-6">
          <mxGeometry relative="1" as="geometry" />
        </mxCell>
        <mxCell id="M-cQeSInd5cV_T6EZegz-21" style="edgeStyle=orthogonalEdgeStyle;rounded=0;orthogonalLoop=1;jettySize=auto;html=1;exitX=1;exitY=0.5;exitDx=0;exitDy=0;entryX=0;entryY=0.5;entryDx=0;entryDy=0;" edge="1" parent="1" source="M-cQeSInd5cV_T6EZegz-1" target="M-cQeSInd5cV_T6EZegz-13">
          <mxGeometry relative="1" as="geometry" />
        </mxCell>
        <mxCell id="M-cQeSInd5cV_T6EZegz-1" value="&lt;div&gt;Basistilfælde:&lt;/div&gt;&lt;div&gt;Er feltet allerede trykket.&lt;br&gt;&lt;/div&gt;" style="rounded=0;whiteSpace=wrap;html=1;" vertex="1" parent="1">
          <mxGeometry x="340" y="120" width="120" height="60" as="geometry" />
        </mxCell>
        <mxCell id="M-cQeSInd5cV_T6EZegz-11" style="edgeStyle=orthogonalEdgeStyle;rounded=0;orthogonalLoop=1;jettySize=auto;html=1;exitX=0;exitY=0.5;exitDx=0;exitDy=0;entryX=1;entryY=0.5;entryDx=0;entryDy=0;" edge="1" parent="1" source="M-cQeSInd5cV_T6EZegz-2" target="M-cQeSInd5cV_T6EZegz-3">
          <mxGeometry relative="1" as="geometry" />
        </mxCell>
        <mxCell id="M-cQeSInd5cV_T6EZegz-12" style="edgeStyle=orthogonalEdgeStyle;rounded=0;orthogonalLoop=1;jettySize=auto;html=1;exitX=1;exitY=0.5;exitDx=0;exitDy=0;entryX=0;entryY=0.5;entryDx=0;entryDy=0;" edge="1" parent="1" source="M-cQeSInd5cV_T6EZegz-2" target="M-cQeSInd5cV_T6EZegz-5">
          <mxGeometry relative="1" as="geometry" />
        </mxCell>
        <mxCell id="M-cQeSInd5cV_T6EZegz-2" value="Er feltet et blankfelt" style="rounded=0;whiteSpace=wrap;html=1;" vertex="1" parent="1">
          <mxGeometry x="340" y="300" width="120" height="60" as="geometry" />
        </mxCell>
        <mxCell id="M-cQeSInd5cV_T6EZegz-10" style="edgeStyle=orthogonalEdgeStyle;rounded=0;orthogonalLoop=1;jettySize=auto;html=1;exitX=0.5;exitY=0;exitDx=0;exitDy=0;entryX=0;entryY=0.5;entryDx=0;entryDy=0;" edge="1" parent="1" source="M-cQeSInd5cV_T6EZegz-3" target="M-cQeSInd5cV_T6EZegz-1">
          <mxGeometry relative="1" as="geometry" />
        </mxCell>
        <mxCell id="M-cQeSInd5cV_T6EZegz-3" value="Hent naboliste og udfør denne funktion for disse." style="rounded=0;whiteSpace=wrap;html=1;" vertex="1" parent="1">
          <mxGeometry x="160" y="300" width="120" height="60" as="geometry" />
        </mxCell>
        <mxCell id="M-cQeSInd5cV_T6EZegz-22" style="edgeStyle=orthogonalEdgeStyle;rounded=0;orthogonalLoop=1;jettySize=auto;html=1;exitX=0.5;exitY=0;exitDx=0;exitDy=0;" edge="1" parent="1" source="M-cQeSInd5cV_T6EZegz-5" target="M-cQeSInd5cV_T6EZegz-13">
          <mxGeometry relative="1" as="geometry" />
        </mxCell>
        <mxCell id="M-cQeSInd5cV_T6EZegz-5" value="udfør " style="rounded=0;whiteSpace=wrap;html=1;" vertex="1" parent="1">
          <mxGeometry x="540" y="300" width="120" height="60" as="geometry" />
        </mxCell>
        <mxCell id="M-cQeSInd5cV_T6EZegz-8" style="edgeStyle=orthogonalEdgeStyle;rounded=0;orthogonalLoop=1;jettySize=auto;html=1;exitX=0.5;exitY=1;exitDx=0;exitDy=0;entryX=0.5;entryY=0;entryDx=0;entryDy=0;" edge="1" parent="1" source="M-cQeSInd5cV_T6EZegz-6" target="M-cQeSInd5cV_T6EZegz-2">
          <mxGeometry relative="1" as="geometry" />
        </mxCell>
        <mxCell id="M-cQeSInd5cV_T6EZegz-6" value="Marker feltet som trykket." style="rounded=0;whiteSpace=wrap;html=1;" vertex="1" parent="1">
          <mxGeometry x="340" y="210" width="120" height="60" as="geometry" />
        </mxCell>
        <mxCell id="M-cQeSInd5cV_T6EZegz-13" value="Slut" style="rounded=0;whiteSpace=wrap;html=1;" vertex="1" parent="1">
          <mxGeometry x="540" y="120" width="120" height="60" as="geometry" />
        </mxCell>
        <mxCell id="M-cQeSInd5cV_T6EZegz-16" value="Ja" style="text;html=1;strokeColor=none;fillColor=none;align=center;verticalAlign=middle;whiteSpace=wrap;rounded=0;" vertex="1" parent="1">
          <mxGeometry x="480" y="120" width="40" height="20" as="geometry" />
        </mxCell>
        <mxCell id="M-cQeSInd5cV_T6EZegz-17" value="Nej" style="text;html=1;strokeColor=none;fillColor=none;align=center;verticalAlign=middle;whiteSpace=wrap;rounded=0;" vertex="1" parent="1">
          <mxGeometry x="410" y="180" width="40" height="20" as="geometry" />
        </mxCell>
        <mxCell id="M-cQeSInd5cV_T6EZegz-18" value="Ja" style="text;html=1;strokeColor=none;fillColor=none;align=center;verticalAlign=middle;whiteSpace=wrap;rounded=0;" vertex="1" parent="1">
          <mxGeometry x="290" y="300" width="40" height="20" as="geometry" />
        </mxCell>
        <mxCell id="M-cQeSInd5cV_T6EZegz-19" value="Nej" style="text;html=1;strokeColor=none;fillColor=none;align=center;verticalAlign=middle;whiteSpace=wrap;rounded=0;" vertex="1" parent="1">
          <mxGeometry x="460" y="300" width="40" height="20" as="geometry" />
        </mxCell>
        <mxCell id="M-cQeSInd5cV_T6EZegz-25" style="edgeStyle=orthogonalEdgeStyle;rounded=0;orthogonalLoop=1;jettySize=auto;html=1;exitX=0.5;exitY=1;exitDx=0;exitDy=0;" edge="1" parent="1" source="M-cQeSInd5cV_T6EZegz-23" target="M-cQeSInd5cV_T6EZegz-1">
          <mxGeometry relative="1" as="geometry" />
        </mxCell>
        <mxCell id="M-cQeSInd5cV_T6EZegz-23" value="Start" style="rounded=0;whiteSpace=wrap;html=1;" vertex="1" parent="1">
          <mxGeometry x="340" y="30" width="120" height="60" as="geometry" />
        </mxCell>
      </root>
    </mxGraphModel>
  </diagram>
</mxfile>
